<svg data-v-423bf9ae="" xmlns="http://www.w3.org/2000/svg" viewBox="0 0 391 107" class="iconLeftSlogan"><!----><!----><!----><g data-v-423bf9ae="" id="d9c27d58-c05c-45a3-b812-adf10959f09f" fill="#022239" transform="matrix(5.628517904206723,0,0,5.628517904206723,98.31641618552004,-17.6735460944084)"><path d="M0.78 6.68L0.78 6.68L0.78 6.68Q1.23 6.55 1.69 6.55L1.69 6.55L1.69 6.55Q2.14 6.55 2.46 6.83L2.46 6.83L2.46 6.83Q2.79 7.11 2.79 7.55L2.79 7.55L2.79 7.55Q2.79 7.99 2.64 9.08L2.64 9.08L2.64 9.08Q2.49 10.16 2.49 10.77L2.49 10.77L2.49 10.77Q2.49 12.33 2.79 13.47L2.79 13.47L2.79 13.47Q2.35 13.64 1.85 13.64L1.85 13.64L1.85 13.64Q1.34 13.64 1.05 13.41L1.05 13.41L1.05 13.41Q0.76 13.17 0.76 12.73L0.76 12.73L0.76 12.73Q0.76 12.29 0.92 11.28L0.92 11.28L0.92 11.28Q1.09 10.28 1.09 9.62L1.09 9.62L1.09 9.62Q1.09 7.87 0.78 6.68ZM0.97 3.51L0.97 3.51L0.97 3.51Q1.46 3.29 1.93 3.29L1.93 3.29L1.93 3.29Q2.41 3.29 2.64 3.54L2.64 3.54L2.64 3.54Q2.87 3.78 2.87 4.26L2.87 4.26L2.87 4.26Q2.87 4.73 2.56 5.10L2.56 5.10L2.56 5.10Q2.24 5.46 1.74 5.46L1.74 5.46L1.74 5.46Q0.70 5.46 0.70 4.38L0.70 4.38L0.70 4.38Q0.70 3.91 0.97 3.51ZM6.71 3.81L6.71 3.81L6.71 3.81Q7.29 3.61 7.77 3.61L7.77 3.61L7.77 3.61Q8.50 3.61 8.90 4.12L8.90 4.12L8.90 4.12Q9.31 4.63 9.53 5.57L9.53 5.57L9.53 5.57Q9.60 5.85 9.82 6.80L9.82 6.80L9.82 6.80Q10.04 7.76 10.18 8.34L10.18 8.34L10.18 8.34Q10.61 10.18 10.97 11.19L10.97 11.19L10.97 11.19Q11.33 12.19 12.11 12.80L12.11 12.80L12.11 12.80Q11.94 13.22 11.56 13.47L11.56 13.47L11.56 13.47Q11.17 13.72 10.72 13.72L10.72 13.72L10.72 13.72Q9.70 13.72 9.23 12.18L9.23 12.18L9.23 12.18Q9.00 11.47 8.82 10.78L8.82 10.78L8.82 10.78Q8.33 10.95 7.61 10.95L7.61 10.95L7.61 10.95Q6.89 10.95 5.84 10.79L5.84 10.79L5.84 10.79Q5.40 12.49 5.40 13.34L5.40 13.34L5.40 13.34Q5.40 13.52 5.42 13.61L5.42 13.61L5.42 13.61Q5.24 13.64 4.80 13.64L4.80 13.64L4.80 13.64Q4.37 13.64 4.04 13.36L4.04 13.36L4.04 13.36Q3.71 13.09 3.71 12.59L3.71 12.59L3.71 12.59Q3.71 11.89 5.05 8.48L5.05 8.48L5.05 8.48Q6.40 5.08 6.71 3.81ZM6.16 9.62L6.16 9.62L6.16 9.62Q6.72 9.69 7.30 9.69L7.30 9.69L7.30 9.69Q7.88 9.69 8.54 9.56L8.54 9.56L8.54 9.56Q8.41 8.99 7.69 5.17L7.69 5.17L7.69 5.17Q6.82 7.42 6.16 9.62ZM13.06 3.30L13.06 3.30L13.06 3.30Q13.51 3.14 13.99 3.14L13.99 3.14L13.99 3.14Q14.46 3.14 14.78 3.45L14.78 3.45L14.78 3.45Q15.09 3.77 15.09 4.31L15.09 4.31L15.09 4.31Q15.09 4.84 14.95 6.46L14.95 6.46L14.95 6.46Q14.80 8.08 14.80 9.00L14.80 9.00L14.80 9.00Q14.80 11.28 15.12 13.47L15.12 13.47L15.12 13.47Q14.67 13.64 14.17 13.64L14.17 13.64L14.17 13.64Q13.09 13.64 13.09 12.59L13.09 12.59L13.09 12.59Q13.09 12.08 13.24 10.61L13.24 10.61L13.24 10.61Q13.40 9.13 13.40 8.23L13.40 8.23L13.40 8.23Q13.40 5.25 13.06 3.30ZM17.93 10.46L17.93 10.46L17.93 10.46Q17.93 11.47 18.26 12.05L18.26 12.05L18.26 12.05Q18.58 12.63 19.33 12.63L19.33 12.63L19.33 12.63Q20.09 12.63 20.52 12.12L20.52 12.12L20.52 12.12Q20.94 11.61 20.94 10.88L20.94 10.88L20.94 10.88Q21.42 10.88 21.77 11.12L21.77 11.12L21.77 11.12Q22.12 11.35 22.12 11.77L22.12 11.77L22.12 11.77Q22.12 12.64 21.20 13.22L21.20 13.22L21.20 13.22Q20.27 13.80 19.25 13.80L19.25 13.80L19.25 13.80Q17.65 13.80 16.94 12.94L16.94 12.94L16.94 12.94Q16.23 12.08 16.23 10.39L16.23 10.39L16.23 10.39Q16.23 8.69 17.18 7.54L17.18 7.54L17.18 7.54Q18.14 6.38 19.74 6.38L19.74 6.38L19.74 6.38Q20.83 6.38 21.50 6.88L21.50 6.88L21.50 6.88Q22.16 7.38 22.16 8.42L22.16 8.42L22.16 8.42Q22.16 9.46 21.22 9.99L21.22 9.99L21.22 9.99Q20.27 10.51 18.91 10.51L18.91 10.51L18.91 10.51Q18.44 10.51 17.93 10.46ZM17.95 9.35L17.95 9.35L17.95 9.35Q18.37 9.44 18.83 9.44L18.83 9.44L18.83 9.44Q19.84 9.44 20.52 9.06L20.52 9.06L20.52 9.06Q20.61 8.72 20.61 8.53L20.61 8.53L20.61 8.53Q20.61 8.04 20.26 7.78L20.26 7.78L20.26 7.78Q19.91 7.53 19.30 7.53L19.30 7.53L19.30 7.53Q18.69 7.53 18.20 7.92L18.20 7.92L18.20 7.92Q17.95 8.65 17.95 9.35ZM29.89 12.68L29.89 12.68L29.89 12.68Q29.89 13.17 29.63 13.45L29.63 13.45L29.63 13.45Q29.37 13.72 28.94 13.72L28.94 13.72L28.94 13.72Q28.50 13.72 28.16 13.55L28.16 13.55L28.16 13.55Q27.82 13.37 27.48 12.96L27.48 12.96L27.48 12.96Q27.15 12.56 26.95 12.28L26.95 12.28L26.95 12.28Q26.67 11.84 25.93 10.56L25.93 10.56L25.93 10.56Q24.53 11.89 24.53 13.64L24.53 13.64L24.53 13.64Q23.83 13.64 23.36 13.37L23.36 13.37L23.36 13.37Q22.89 13.10 22.89 12.59L22.89 12.59L22.89 12.59Q22.89 12.07 23.23 11.63L23.23 11.63L23.23 11.63Q23.58 11.19 24.34 10.54L24.34 10.54L24.34 10.54Q25.10 9.90 25.35 9.65L25.35 9.65L25.35 9.65Q24.82 8.83 24.30 8.37L24.30 8.37L24.30 8.37Q23.77 7.90 22.96 7.59L22.96 7.59L22.96 7.59Q22.96 7.13 23.26 6.84L23.26 6.84L23.26 6.84Q23.56 6.55 23.97 6.55L23.97 6.55L23.97 6.55Q24.37 6.55 24.70 6.70L24.70 6.70L24.70 6.70Q25.03 6.85 25.28 7.04L25.28 7.04L25.28 7.04Q25.52 7.22 25.82 7.59L25.82 7.59L25.82 7.59Q26.17 7.99 26.73 8.85L26.73 8.85L26.73 8.85Q27.06 8.46 27.23 8.22L27.23 8.22L27.23 8.22Q27.65 7.59 27.65 6.55L27.65 6.55L27.65 6.55Q28.17 6.55 28.51 6.59L28.51 6.59L28.51 6.59Q28.85 6.64 29.16 6.85L29.16 6.85L29.16 6.85Q29.46 7.07 29.46 7.46L29.46 7.46L29.46 7.46Q29.46 7.85 29.06 8.29L29.06 8.29L29.06 8.29Q28.67 8.72 28.07 9.18L28.07 9.18L28.07 9.18Q27.47 9.63 27.30 9.81L27.30 9.81L27.30 9.81Q27.90 11.03 28.50 11.74L28.50 11.74L28.50 11.74Q29.11 12.45 29.89 12.68ZM35.13 3.30L35.13 3.30L35.13 3.30Q35.57 3.14 36.05 3.14L36.05 3.14L36.05 3.14Q36.53 3.14 36.83 3.45L36.83 3.45L36.83 3.45Q37.14 3.77 37.14 4.24L37.14 4.24L37.14 4.24Q37.14 4.70 37.00 6.45L37.00 6.45L37.00 6.45Q36.86 8.19 36.86 9.88L36.86 9.88L36.86 9.88Q36.86 11.56 37.20 13.47L37.20 13.47L37.20 13.47Q36.69 13.64 36.15 13.64L36.15 13.64L36.15 13.64Q35.22 13.64 35.22 12.33L35.22 12.33L35.22 12.33Q35.22 11.90 35.41 10.78L35.41 10.78L35.41 10.78Q34.82 12.03 34.36 12.63L34.36 12.63L34.36 12.63Q33.91 13.23 33.48 13.48L33.48 13.48L33.48 13.48Q33.05 13.72 32.58 13.72L32.58 13.72L32.58 13.72Q31.51 13.72 30.95 12.94L30.95 12.94L30.95 12.94Q30.38 12.15 30.38 11.00L30.38 11.00L30.38 11.00Q30.38 9.86 30.79 8.84L30.79 8.84L30.79 8.84Q31.21 7.83 32.04 7.15L32.04 7.15L32.04 7.15Q32.87 6.47 33.81 6.47L33.81 6.47L33.81 6.47Q34.75 6.47 35.43 6.72L35.43 6.72L35.43 6.72Q35.41 4.91 35.13 3.30ZM35.43 7.91L35.43 7.91L35.43 7.91Q34.75 7.66 33.95 7.66L33.95 7.66L33.95 7.66Q33.15 7.66 32.58 8.12L32.58 8.12L32.58 8.12Q32.10 9.25 32.10 10.65L32.10 10.65L32.10 10.65Q32.10 11.30 32.28 11.89L32.28 11.89L32.28 11.89Q32.47 12.47 32.89 12.47L32.89 12.47L32.89 12.47Q33.53 12.47 34.35 11.03L34.35 11.03L34.35 11.03Q35.17 9.59 35.43 7.91ZM39.76 10.46L39.76 10.46L39.76 10.46Q39.76 11.47 40.08 12.05L40.08 12.05L40.08 12.05Q40.40 12.63 41.16 12.63L41.16 12.63L41.16 12.63Q41.92 12.63 42.34 12.12L42.34 12.12L42.34 12.12Q42.77 11.61 42.77 10.88L42.77 10.88L42.77 10.88Q43.25 10.88 43.60 11.12L43.60 11.12L43.60 11.12Q43.95 11.35 43.95 11.77L43.95 11.77L43.95 11.77Q43.95 12.64 43.02 13.22L43.02 13.22L43.02 13.22Q42.10 13.80 41.08 13.80L41.08 13.80L41.08 13.80Q39.48 13.80 38.77 12.94L38.77 12.94L38.77 12.94Q38.05 12.08 38.05 10.39L38.05 10.39L38.05 10.39Q38.05 8.69 39.01 7.54L39.01 7.54L39.01 7.54Q39.97 6.38 41.57 6.38L41.57 6.38L41.57 6.38Q42.66 6.38 43.32 6.88L43.32 6.88L43.32 6.88Q43.99 7.38 43.99 8.42L43.99 8.42L43.99 8.42Q43.99 9.46 43.04 9.99L43.04 9.99L43.04 9.99Q42.10 10.51 40.74 10.51L40.74 10.51L40.74 10.51Q40.26 10.51 39.76 10.46ZM39.77 9.35L39.77 9.35L39.77 9.35Q40.19 9.44 40.66 9.44L40.66 9.44L40.66 9.44Q41.66 9.44 42.35 9.06L42.35 9.06L42.35 9.06Q42.43 8.72 42.43 8.53L42.43 8.53L42.43 8.53Q42.43 8.04 42.08 7.78L42.08 7.78L42.08 7.78Q41.73 7.53 41.13 7.53L41.13 7.53L41.13 7.53Q40.52 7.53 40.03 7.92L40.03 7.92L40.03 7.92Q39.77 8.65 39.77 9.35ZM50.78 11.42L50.78 11.42L50.78 11.42Q50.29 12.38 49.55 13.05L49.55 13.05L49.55 13.05Q48.80 13.72 48.06 13.72L48.06 13.72L48.06 13.72Q47.32 13.72 46.92 13.21L46.92 13.21L46.92 13.21Q46.52 12.70 46.35 11.89L46.35 11.89L46.35 11.89Q46.19 11.09 46.05 10.23L46.05 10.23L46.05 10.23Q45.92 9.38 45.60 8.57L45.60 8.57L45.60 8.57Q45.28 7.76 44.72 7.35L44.72 7.35L44.72 7.35Q44.90 7.01 45.26 6.78L45.26 6.78L45.26 6.78Q45.63 6.55 46.05 6.55L46.05 6.55L46.05 6.55Q46.70 6.55 47.11 7.40L47.11 7.40L47.11 7.40Q47.52 8.25 47.63 9.27L47.63 9.27L47.63 9.27Q47.75 10.29 47.90 11.25L47.90 11.25L47.90 11.25Q48.05 12.21 48.24 12.35L48.24 12.35L48.24 12.35Q48.72 12.32 49.08 11.74L49.08 11.74L49.08 11.74Q49.43 11.16 49.60 10.33L49.60 10.33L49.60 10.33Q49.91 8.82 49.91 7.97L49.91 7.97L49.91 7.97Q49.91 7.11 49.83 6.65L49.83 6.65L49.83 6.65Q50.32 6.55 50.67 6.55L50.67 6.55L50.67 6.55Q51.87 6.55 51.87 7.70L51.87 7.70L51.87 7.70Q51.87 8.43 51.57 9.44L51.57 9.44L51.57 9.44Q51.27 10.46 50.78 11.42Z"></path></g><defs data-v-423bf9ae=""><linearGradient data-v-423bf9ae="" gradientTransform="rotate(25)" id="7b7d0419-3ba7-4d88-98b2-a9cba4337b06" x1="0%" y1="0%" x2="100%" y2="0%"><stop data-v-423bf9ae="" offset="0%" style="stop-color: rgb(0, 10, 104); stop-opacity: 1;"></stop><stop data-v-423bf9ae="" offset="100%" style="stop-color: rgb(0, 196, 238); stop-opacity: 1;"></stop></linearGradient></defs><g data-v-423bf9ae="" id="83afd876-fc6a-4d0a-b8bd-27c6e468fc78" transform="matrix(1.0868111504448785,0,0,1.0868111504448785,-13.255261890115804,-0.23894260335429607)" stroke="none" fill="url(#7b7d0419-3ba7-4d88-98b2-a9cba4337b06)"><g clip-rule="evenodd"><path d="M12.983 10.59l17.018 88.223-5.872-59.049 29.021-1.892-.054-9.883L64.549 1 53.622 18.977z"></path><path d="M59.389 54.548l5.16-53.541-8.74 39.716-19.612 1.045 1.57 20.462-7.766 36.583 12.057-39.899z"></path><path d="M62.8 67.182l.549-10.453-15.979 3.755-.032 11.797-17.337 26.532 21.68-27.616zM65.711 62.394l14.841-4.731 1.509-12.532-15.899 2.095zM72.07 44.502l10.988-1.417 1.581-10.278-8.079-.373L64.549 1l8.43 30.967z"></path><path d="M87.413 31.294l1.256-9.506-9.544-2.694L64.549 1l14.483 22.437-.422 7z"></path></g></g><!----><g data-v-423bf9ae="" id="00ae2abd-c40a-464e-815a-9e2aabddf17a" fill="#022239" transform="matrix(0.7946782049443843,0,0,0.7946782049443843,101.84315443983103,57.695433460878704)"><path d="M0.52 12.39C0.52 12.63 0.55 12.68 0.74 12.68C1.06 12.68 2.03 12.64 2.45 12.64C2.87 12.64 7.38 12.68 7.70 12.68C7.83 12.68 7.98 12.66 7.98 12.49C7.98 12.07 8.02 11.23 8.02 10.53C8.02 10.39 7.87 10.39 7.74 10.39C7.63 10.39 7.50 10.39 7.50 10.51C7.49 11.06 7.49 11.41 7.46 11.76C7.43 12.01 7.43 12.04 7.34 12.04C7.18 12.04 4.55 12.08 3.05 12.08C2.98 12.08 2.94 10.11 2.90 8.26C2.90 8.06 2.94 8.09 3.08 8.09L5.36 8.09C6.06 8.09 6.09 8.20 6.09 8.30L6.09 9.00C6.09 9.14 6.27 9.14 6.38 9.14C6.48 9.14 6.61 9.13 6.61 9.02C6.61 8.83 6.58 8.33 6.58 7.83C6.58 7.32 6.61 6.83 6.61 6.71C6.61 6.59 6.47 6.58 6.37 6.58C6.26 6.58 6.09 6.59 6.09 6.72L6.09 7.45C6.09 7.62 5.64 7.63 5.36 7.63L3.02 7.63C2.91 7.63 2.90 7.63 2.90 7.45C2.88 6.75 2.87 6.06 2.87 5.46C2.87 5.12 2.87 3.71 2.95 3.71C4.19 3.71 6.69 3.75 6.69 3.81C6.69 3.99 6.65 4.83 6.65 4.89C6.65 5.04 6.72 5.10 6.90 5.10C7.10 5.10 7.17 5.08 7.17 4.94C7.17 3.85 7.22 3.36 7.22 3.09C7.22 2.91 7.14 2.90 6.94 2.90C6.75 2.90 6.75 2.95 6.72 3.11C6.71 3.25 6.78 3.25 5.87 3.25C5.25 3.25 3.11 3.29 2.34 3.29C1.85 3.29 0.91 3.25 0.81 3.25C0.69 3.25 0.63 3.30 0.63 3.49C0.63 3.72 0.70 3.74 0.87 3.74L1.53 3.74C1.58 3.74 1.65 4.79 1.65 5.71C1.65 5.80 1.71 8.27 1.71 9.83L1.71 11.17C1.71 11.84 1.68 12.18 1.65 12.18L0.80 12.18C0.57 12.18 0.52 12.21 0.52 12.39ZM15.57 12.43C15.57 12.66 15.65 12.68 15.83 12.68C16.06 12.68 16.58 12.64 17.00 12.64C17.42 12.64 17.84 12.68 18.16 12.68C18.35 12.68 18.40 12.63 18.40 12.39C18.40 12.19 18.33 12.18 18.10 12.18L17.33 12.18C17.16 12.18 17.23 12.11 17.36 11.90C17.89 11.03 19.24 9.09 19.64 8.51C19.68 8.44 19.71 8.46 19.75 8.53C20.29 9.42 21.42 11.30 21.78 12.03C21.85 12.14 21.84 12.18 21.71 12.18L21.01 12.18C20.79 12.18 20.72 12.19 20.72 12.39C20.72 12.63 20.76 12.68 20.96 12.68C21.28 12.68 22.16 12.64 22.58 12.64C23.00 12.64 23.81 12.68 24.04 12.68C24.26 12.68 24.30 12.67 24.30 12.43C24.30 12.19 24.28 12.18 24.01 12.18L23.53 12.18C23.45 12.18 21 8.32 20.57 7.63C20.54 7.59 20.52 7.53 20.57 7.48C20.85 7.06 21.85 5.78 22.68 4.59C22.99 4.14 23.30 3.77 23.34 3.77L23.66 3.77C23.83 3.77 23.93 3.75 23.93 3.51C23.93 3.29 23.84 3.26 23.66 3.26C23.44 3.26 23.02 3.30 22.60 3.30C22.09 3.30 21.73 3.26 21.50 3.26C21.31 3.26 21.27 3.32 21.27 3.56C21.27 3.75 21.34 3.77 21.56 3.77L22.34 3.77L22.34 3.78C22.34 3.99 21.92 4.68 21.46 5.36C21.34 5.56 20.58 6.72 20.31 7.10C20.29 7.14 20.27 7.15 20.26 7.15C20.23 7.15 20.17 7.04 20.13 6.99C19.67 6.17 18.79 4.61 18.51 3.92C18.47 3.81 18.41 3.77 18.58 3.77L19.15 3.77C19.38 3.77 19.45 3.75 19.45 3.56C19.45 3.32 19.43 3.26 19.24 3.26C18.91 3.26 18.27 3.30 17.85 3.30C17.43 3.30 16.41 3.26 16.18 3.26C16.00 3.26 15.92 3.28 15.92 3.51C15.92 3.75 16.03 3.77 16.20 3.77L16.74 3.77C16.83 3.77 19.15 7.56 19.36 7.91C19.43 8.01 19.45 8.05 19.38 8.15C18.70 9.02 17.98 9.88 17.36 10.79C16.86 11.52 16.42 12.18 16.35 12.18L15.83 12.18C15.67 12.18 15.57 12.19 15.57 12.43ZM31.71 7.91C31.71 11.31 34.08 12.87 36.67 12.87C38.44 12.87 40.22 11.90 40.26 11.59C40.43 10.29 40.49 9.70 40.49 9.66C40.49 9.56 40.45 9.52 40.28 9.51C40.22 9.51 40.17 9.49 40.12 9.49C40.01 9.49 39.96 9.53 39.93 9.70L39.75 11.33C39.73 11.45 38.63 12.24 37.06 12.24C34.93 12.24 33.22 10.29 33.22 7.94C33.22 5.42 34.65 3.54 36.65 3.54C38.50 3.54 39.84 5.01 39.84 5.17C39.84 5.29 39.79 6.40 39.79 6.45C39.79 6.59 39.83 6.64 40.10 6.64C40.29 6.64 40.36 6.62 40.36 6.44C40.36 5.73 40.42 3.92 40.42 3.67C40.42 3.47 40.31 3.44 40.10 3.44C39.87 3.44 39.84 3.50 39.84 3.67L39.84 4.05C39.84 4.16 39.80 4.16 39.68 4.06C39.40 3.86 38.42 3.04 36.75 3.04C33.91 3.04 31.71 4.96 31.71 7.91ZM48.87 12.39C48.87 12.63 48.90 12.68 49.10 12.68C49.42 12.68 50.39 12.64 50.81 12.64C51.23 12.64 55.73 12.68 56.06 12.68C56.18 12.68 56.34 12.66 56.34 12.49C56.34 12.07 56.38 11.23 56.38 10.53C56.38 10.39 56.22 10.39 56.10 10.39C55.99 10.39 55.86 10.39 55.86 10.51C55.85 11.06 55.85 11.41 55.82 11.76C55.79 12.01 55.79 12.04 55.69 12.04C55.54 12.04 52.91 12.08 51.41 12.08C51.34 12.08 51.30 10.11 51.25 8.26C51.25 8.06 51.30 8.09 51.44 8.09L53.72 8.09C54.42 8.09 54.45 8.20 54.45 8.30L54.45 9.00C54.45 9.14 54.63 9.14 54.74 9.14C54.84 9.14 54.96 9.13 54.96 9.02C54.96 8.83 54.94 8.33 54.94 7.83C54.94 7.32 54.96 6.83 54.96 6.71C54.96 6.59 54.82 6.58 54.73 6.58C54.61 6.58 54.45 6.59 54.45 6.72L54.45 7.45C54.45 7.62 54.00 7.63 53.72 7.63L51.38 7.63C51.27 7.63 51.25 7.63 51.25 7.45C51.24 6.75 51.23 6.06 51.23 5.46C51.23 5.12 51.23 3.71 51.31 3.71C52.54 3.71 55.05 3.75 55.05 3.81C55.05 3.99 55.01 4.83 55.01 4.89C55.01 5.04 55.08 5.10 55.26 5.10C55.45 5.10 55.52 5.08 55.52 4.94C55.52 3.85 55.58 3.36 55.58 3.09C55.58 2.91 55.50 2.90 55.30 2.90C55.10 2.90 55.10 2.95 55.08 3.11C55.06 3.25 55.13 3.25 54.22 3.25C53.61 3.25 51.46 3.29 50.69 3.29C50.20 3.29 49.27 3.25 49.17 3.25C49.04 3.25 48.99 3.30 48.99 3.49C48.99 3.72 49.06 3.74 49.22 3.74L49.88 3.74C49.94 3.74 50.01 4.79 50.01 5.71C50.01 5.80 50.06 8.27 50.06 9.83L50.06 11.17C50.06 11.84 50.04 12.18 50.01 12.18L49.15 12.18C48.93 12.18 48.87 12.21 48.87 12.39ZM64.34 12.39C64.34 12.63 64.37 12.68 64.57 12.68C64.89 12.68 65.86 12.64 66.28 12.64C66.70 12.64 71.05 12.68 71.37 12.68C71.64 12.68 71.71 12.66 71.72 12.49C71.78 12.08 72.02 10.72 72.02 10.60C72.02 10.47 71.86 10.44 71.69 10.43C71.60 10.42 71.51 10.46 71.50 10.56L71.33 11.76C71.29 12.05 71.27 12.03 71.05 12.04C70.90 12.05 68.39 12.12 66.96 12.12C66.92 12.12 66.88 11.38 66.88 10.54L66.88 6.66C66.88 5.40 66.89 3.70 66.99 3.70L67.97 3.70C68.21 3.70 68.24 3.63 68.24 3.44C68.24 3.23 68.22 3.19 67.98 3.19C67.66 3.19 66.72 3.23 66.30 3.23C65.88 3.23 64.95 3.19 64.72 3.19C64.50 3.19 64.44 3.22 64.44 3.44C64.44 3.65 64.48 3.70 64.68 3.70L65.51 3.70C65.55 3.70 65.58 4.23 65.58 4.90L65.58 8.13C65.58 10.07 65.55 12.18 65.46 12.18L64.62 12.18C64.40 12.18 64.34 12.21 64.34 12.39ZM79.63 12.39C79.63 12.63 79.66 12.68 79.86 12.68C80.18 12.68 81.14 12.64 81.56 12.64C81.98 12.64 86.34 12.68 86.66 12.68C86.93 12.68 87.00 12.66 87.01 12.49C87.07 12.08 87.30 10.72 87.30 10.60C87.30 10.47 87.15 10.44 86.98 10.43C86.88 10.42 86.80 10.46 86.79 10.56L86.62 11.76C86.58 12.05 86.56 12.03 86.34 12.04C86.18 12.05 83.68 12.12 82.25 12.12C82.21 12.12 82.17 11.38 82.17 10.54L82.17 6.66C82.17 5.40 82.18 3.70 82.28 3.70L83.26 3.70C83.50 3.70 83.52 3.63 83.52 3.44C83.52 3.23 83.51 3.19 83.27 3.19C82.95 3.19 82.01 3.23 81.59 3.23C81.17 3.23 80.23 3.19 80.01 3.19C79.79 3.19 79.73 3.22 79.73 3.44C79.73 3.65 79.77 3.70 79.97 3.70L80.79 3.70C80.84 3.70 80.86 4.23 80.86 4.90L80.86 8.13C80.86 10.07 80.84 12.18 80.75 12.18L79.91 12.18C79.69 12.18 79.63 12.21 79.63 12.39ZM94.92 12.39C94.92 12.63 94.95 12.68 95.14 12.68C95.47 12.68 96.43 12.64 96.85 12.64C97.27 12.64 101.78 12.68 102.10 12.68C102.23 12.68 102.38 12.66 102.38 12.49C102.38 12.07 102.42 11.23 102.42 10.53C102.42 10.39 102.27 10.39 102.14 10.39C102.03 10.39 101.91 10.39 101.91 10.51C101.89 11.06 101.89 11.41 101.86 11.76C101.84 12.01 101.84 12.04 101.74 12.04C101.58 12.04 98.95 12.08 97.45 12.08C97.38 12.08 97.34 10.11 97.30 8.26C97.30 8.06 97.34 8.09 97.48 8.09L99.76 8.09C100.46 8.09 100.49 8.20 100.49 8.30L100.49 9.00C100.49 9.14 100.67 9.14 100.79 9.14C100.88 9.14 101.01 9.13 101.01 9.02C101.01 8.83 100.98 8.33 100.98 7.83C100.98 7.32 101.01 6.83 101.01 6.71C101.01 6.59 100.87 6.58 100.77 6.58C100.66 6.58 100.49 6.59 100.49 6.72L100.49 7.45C100.49 7.62 100.04 7.63 99.76 7.63L97.43 7.63C97.31 7.63 97.30 7.63 97.30 7.45C97.29 6.75 97.27 6.06 97.27 5.46C97.27 5.12 97.27 3.71 97.36 3.71C98.59 3.71 101.09 3.75 101.09 3.81C101.09 3.99 101.05 4.83 101.05 4.89C101.05 5.04 101.12 5.10 101.30 5.10C101.50 5.10 101.57 5.08 101.57 4.94C101.57 3.85 101.63 3.36 101.63 3.09C101.63 2.91 101.54 2.90 101.35 2.90C101.15 2.90 101.15 2.95 101.12 3.11C101.11 3.25 101.18 3.25 100.27 3.25C99.65 3.25 97.51 3.29 96.74 3.29C96.25 3.29 95.31 3.25 95.21 3.25C95.09 3.25 95.03 3.30 95.03 3.49C95.03 3.72 95.10 3.74 95.27 3.74L95.93 3.74C95.98 3.74 96.05 4.79 96.05 5.71C96.05 5.80 96.11 8.27 96.11 9.83L96.11 11.17C96.11 11.84 96.08 12.18 96.05 12.18L95.20 12.18C94.98 12.18 94.92 12.21 94.92 12.39ZM110.39 12.39C110.39 12.63 110.40 12.68 110.60 12.68C110.78 12.68 111.16 12.64 111.78 12.64C112.41 12.64 112.97 12.68 113.29 12.68C113.46 12.68 113.46 12.61 113.46 12.40C113.46 12.24 113.46 12.18 113.29 12.18L112.08 12.18C112.04 12.18 112.03 11.54 112.03 10.79C112.03 9.46 112.04 7.48 112.04 5.99C112.04 5.25 112.04 4.84 112.06 4.28C112.06 4.02 112.13 4.14 112.25 4.28L119.14 12.66C119.22 12.75 119.31 12.89 119.42 12.89C119.53 12.89 119.60 12.77 119.60 12.54C119.60 12.39 119.77 6.65 119.78 4.48C119.78 4.06 119.81 3.70 119.84 3.70L120.47 3.70C120.69 3.70 120.75 3.68 120.75 3.49C120.75 3.25 120.75 3.19 120.55 3.19C120.36 3.19 119.92 3.23 119.36 3.23C118.75 3.23 117.95 3.19 117.85 3.19C117.68 3.19 117.68 3.26 117.68 3.47C117.68 3.64 117.68 3.70 117.85 3.70L119.15 3.70C119.17 3.70 119.17 4.33 119.17 4.44C119.17 5.85 119.20 8.33 119.20 9.70L119.20 10.29C119.20 10.57 119.18 10.65 118.96 10.37L113.27 3.39C113.16 3.25 113.13 3.19 112.97 3.19C112.88 3.19 112.50 3.23 112.20 3.23C111.90 3.23 110.82 3.19 110.63 3.19C110.46 3.19 110.43 3.26 110.43 3.47C110.43 3.64 110.46 3.70 110.63 3.70L111.54 3.70C111.54 4.17 111.50 8.53 111.43 10.79C111.40 11.69 111.41 12.18 111.30 12.18L110.66 12.18C110.43 12.18 110.39 12.19 110.39 12.39ZM128.86 7.91C128.86 11.31 131.22 12.87 133.81 12.87C135.59 12.87 137.37 11.90 137.41 11.59C137.58 10.29 137.63 9.70 137.63 9.66C137.63 9.56 137.59 9.52 137.42 9.51C137.37 9.51 137.31 9.49 137.27 9.49C137.16 9.49 137.10 9.53 137.07 9.70L136.89 11.33C136.88 11.45 135.77 12.24 134.20 12.24C132.08 12.24 130.37 10.29 130.37 7.94C130.37 5.42 131.80 3.54 133.80 3.54C135.65 3.54 136.99 5.01 136.99 5.17C136.99 5.29 136.93 6.40 136.93 6.45C136.93 6.59 136.98 6.64 137.24 6.64C137.44 6.64 137.51 6.62 137.51 6.44C137.51 5.73 137.56 3.92 137.56 3.67C137.56 3.47 137.45 3.44 137.24 3.44C137.02 3.44 136.99 3.50 136.99 3.67L136.99 4.05C136.99 4.16 136.95 4.16 136.82 4.06C136.54 3.86 135.56 3.04 133.90 3.04C131.05 3.04 128.86 4.96 128.86 7.91ZM146.02 12.39C146.02 12.63 146.05 12.68 146.24 12.68C146.57 12.68 147.53 12.64 147.95 12.64C148.37 12.64 152.88 12.68 153.20 12.68C153.33 12.68 153.48 12.66 153.48 12.49C153.48 12.07 153.52 11.23 153.52 10.53C153.52 10.39 153.37 10.39 153.24 10.39C153.13 10.39 153.01 10.39 153.01 10.51C152.99 11.06 152.99 11.41 152.96 11.76C152.94 12.01 152.94 12.04 152.84 12.04C152.68 12.04 150.05 12.08 148.55 12.08C148.48 12.08 148.44 10.11 148.40 8.26C148.40 8.06 148.44 8.09 148.58 8.09L150.86 8.09C151.56 8.09 151.59 8.20 151.59 8.30L151.59 9.00C151.59 9.14 151.77 9.14 151.89 9.14C151.98 9.14 152.11 9.13 152.11 9.02C152.11 8.83 152.08 8.33 152.08 7.83C152.08 7.32 152.11 6.83 152.11 6.71C152.11 6.59 151.97 6.58 151.87 6.58C151.76 6.58 151.59 6.59 151.59 6.72L151.59 7.45C151.59 7.62 151.14 7.63 150.86 7.63L148.53 7.63C148.41 7.63 148.40 7.63 148.40 7.45C148.39 6.75 148.37 6.06 148.37 5.46C148.37 5.12 148.37 3.71 148.46 3.71C149.69 3.71 152.19 3.75 152.19 3.81C152.19 3.99 152.15 4.83 152.15 4.89C152.15 5.04 152.22 5.10 152.40 5.10C152.60 5.10 152.67 5.08 152.67 4.94C152.67 3.85 152.73 3.36 152.73 3.09C152.73 2.91 152.64 2.90 152.45 2.90C152.25 2.90 152.25 2.95 152.22 3.11C152.21 3.25 152.28 3.25 151.37 3.25C150.75 3.25 148.61 3.29 147.84 3.29C147.35 3.29 146.41 3.25 146.31 3.25C146.19 3.25 146.13 3.30 146.13 3.49C146.13 3.72 146.20 3.74 146.37 3.74L147.03 3.74C147.08 3.74 147.15 4.79 147.15 5.71C147.15 5.80 147.21 8.27 147.21 9.83L147.21 11.17C147.21 11.84 147.18 12.18 147.15 12.18L146.30 12.18C146.08 12.18 146.02 12.21 146.02 12.39ZM171.29 12.39C171.29 12.63 171.32 12.68 171.51 12.68C171.84 12.68 172.80 12.64 173.22 12.64C173.64 12.64 178.15 12.68 178.47 12.68C178.60 12.68 178.75 12.66 178.75 12.49C178.75 12.07 178.79 11.23 178.79 10.53C178.79 10.39 178.64 10.39 178.51 10.39C178.40 10.39 178.28 10.39 178.28 10.51C178.26 11.06 178.26 11.41 178.23 11.76C178.21 12.01 178.21 12.04 178.11 12.04C177.95 12.04 175.32 12.08 173.82 12.08C173.75 12.08 173.71 10.11 173.67 8.26C173.67 8.06 173.71 8.09 173.85 8.09L176.13 8.09C176.83 8.09 176.86 8.20 176.86 8.30L176.86 9.00C176.86 9.14 177.04 9.14 177.16 9.14C177.25 9.14 177.38 9.13 177.38 9.02C177.38 8.83 177.35 8.33 177.35 7.83C177.35 7.32 177.38 6.83 177.38 6.71C177.38 6.59 177.24 6.58 177.14 6.58C177.03 6.58 176.86 6.59 176.86 6.72L176.86 7.45C176.86 7.62 176.41 7.63 176.13 7.63L173.80 7.63C173.68 7.63 173.67 7.63 173.67 7.45C173.66 6.75 173.64 6.06 173.64 5.46C173.64 5.12 173.64 3.71 173.73 3.71C174.96 3.71 177.46 3.75 177.46 3.81C177.46 3.99 177.42 4.83 177.42 4.89C177.42 5.04 177.49 5.10 177.67 5.10C177.87 5.10 177.94 5.08 177.94 4.94C177.94 3.85 178.00 3.36 178.00 3.09C178.00 2.91 177.91 2.90 177.72 2.90C177.52 2.90 177.52 2.95 177.49 3.11C177.48 3.25 177.55 3.25 176.64 3.25C176.02 3.25 173.88 3.29 173.11 3.29C172.62 3.29 171.68 3.25 171.58 3.25C171.46 3.25 171.40 3.30 171.40 3.49C171.40 3.72 171.47 3.74 171.64 3.74L172.30 3.74C172.35 3.74 172.42 4.79 172.42 5.71C172.42 5.80 172.48 8.27 172.48 9.83L172.48 11.17C172.48 11.84 172.45 12.18 172.42 12.18L171.57 12.18C171.35 12.18 171.29 12.21 171.29 12.39ZM186.34 3.51C186.34 3.75 186.44 3.77 186.61 3.77L187.04 3.77C187.12 3.77 189.91 10.99 189.95 11.07C190.44 12.18 190.54 12.99 190.75 12.99C191.02 12.99 191.07 12.67 191.35 12.26C191.51 12.04 191.59 12.01 191.74 11.66L194.98 4.06C195.09 3.81 195.08 3.77 195.44 3.77C195.66 3.77 195.73 3.75 195.73 3.56C195.73 3.32 195.69 3.26 195.50 3.26C195.36 3.26 194.82 3.30 194.40 3.30C193.98 3.30 193.16 3.26 192.93 3.26C192.74 3.26 192.68 3.29 192.68 3.51C192.68 3.75 192.81 3.77 192.98 3.77L193.97 3.77C194.04 3.77 194.05 3.81 194.05 3.95C194.05 4.63 192.37 8.72 191.65 10.63C191.51 10.99 191.42 11.17 191.38 11.17C191.34 11.17 191.24 10.98 191.10 10.60C190.53 9.10 189.39 6.01 188.87 4.49C188.79 4.27 188.71 3.93 188.71 3.79L188.71 3.77L189.69 3.77C189.91 3.77 189.98 3.75 189.98 3.56C189.98 3.32 189.94 3.26 189.74 3.26C189.42 3.26 188.34 3.30 187.92 3.30C187.50 3.30 186.79 3.26 186.61 3.26C186.42 3.26 186.34 3.28 186.34 3.51ZM203.35 12.39C203.35 12.63 203.38 12.68 203.57 12.68C203.90 12.68 204.86 12.64 205.28 12.64C205.70 12.64 210.21 12.68 210.53 12.68C210.66 12.68 210.81 12.66 210.81 12.49C210.81 12.07 210.85 11.23 210.85 10.53C210.85 10.39 210.70 10.39 210.57 10.39C210.46 10.39 210.34 10.39 210.34 10.51C210.32 11.06 210.32 11.41 210.29 11.76C210.27 12.01 210.27 12.04 210.17 12.04C210.01 12.04 207.38 12.08 205.88 12.08C205.81 12.08 205.77 10.11 205.73 8.26C205.73 8.06 205.77 8.09 205.91 8.09L208.19 8.09C208.89 8.09 208.92 8.20 208.92 8.30L208.92 9.00C208.92 9.14 209.10 9.14 209.22 9.14C209.31 9.14 209.44 9.13 209.44 9.02C209.44 8.83 209.41 8.33 209.41 7.83C209.41 7.32 209.44 6.83 209.44 6.71C209.44 6.59 209.30 6.58 209.20 6.58C209.09 6.58 208.92 6.59 208.92 6.72L208.92 7.45C208.92 7.62 208.47 7.63 208.19 7.63L205.86 7.63C205.74 7.63 205.73 7.63 205.73 7.45C205.72 6.75 205.70 6.06 205.70 5.46C205.70 5.12 205.70 3.71 205.79 3.71C207.02 3.71 209.52 3.75 209.52 3.81C209.52 3.99 209.48 4.83 209.48 4.89C209.48 5.04 209.55 5.10 209.73 5.10C209.93 5.10 210.00 5.08 210.00 4.94C210.00 3.85 210.06 3.36 210.06 3.09C210.06 2.91 209.97 2.90 209.78 2.90C209.58 2.90 209.58 2.95 209.55 3.11C209.54 3.25 209.61 3.25 208.70 3.25C208.08 3.25 205.94 3.29 205.17 3.29C204.68 3.29 203.74 3.25 203.64 3.25C203.52 3.25 203.46 3.30 203.46 3.49C203.46 3.72 203.53 3.74 203.70 3.74L204.36 3.74C204.41 3.74 204.48 4.79 204.48 5.71C204.48 5.80 204.54 8.27 204.54 9.83L204.54 11.17C204.54 11.84 204.51 12.18 204.48 12.18L203.63 12.18C203.41 12.18 203.35 12.21 203.35 12.39ZM218.82 3.51C218.82 3.72 218.89 3.79 219.09 3.79L219.90 3.77C220.00 3.77 220.04 6.61 220.04 8.55L220.04 10.42C220.04 11.30 220.02 12.18 219.98 12.18L219.38 12.18C219.16 12.18 219.09 12.19 219.09 12.39C219.09 12.63 219.13 12.68 219.32 12.68C219.45 12.68 220.28 12.64 220.70 12.64C221.12 12.64 221.89 12.68 222.21 12.68C222.38 12.68 222.40 12.61 222.40 12.40C222.40 12.24 222.38 12.18 222.21 12.18L221.40 12.18C221.33 12.18 221.24 9.18 221.24 8.37C221.24 8.30 221.24 8.26 221.35 8.26C221.75 8.26 222.35 8.27 222.64 8.27C224.88 8.32 225.02 10.00 225.02 11.68L225.02 12.49C225.02 12.61 225.08 12.64 225.18 12.64C225.18 12.64 226.62 12.68 227.09 12.68C227.26 12.68 227.32 12.64 227.32 12.53C227.32 12.24 227.26 12.18 227.11 12.18L226.46 12.18C226.37 12.18 226.34 12.14 226.31 11.31C226.23 8.99 224.85 8.34 223.94 8.05C223.80 8.01 223.83 8.01 223.94 7.95C224.53 7.69 225.85 6.94 225.85 5.63C225.85 3.63 224.15 3.21 222.75 3.21C222.43 3.21 221.14 3.29 220.72 3.29C220.30 3.29 219.32 3.26 219.10 3.26C218.92 3.26 218.82 3.28 218.82 3.51ZM221.24 7.80L221.24 4.40C221.24 4.05 221.27 3.68 221.31 3.68C221.52 3.65 221.80 3.65 222.03 3.65C223.33 3.65 224.57 4.47 224.57 5.82C224.57 6.99 224.03 7.57 223.37 7.88C223.33 7.90 223.29 7.90 223.22 7.90C222.74 7.88 222.03 7.88 221.42 7.87C221.26 7.87 221.24 7.85 221.24 7.80ZM233.95 3.44C233.95 3.68 234.04 3.70 234.21 3.70L234.61 3.70C234.74 3.70 236.99 7.74 237.40 8.50C237.45 8.60 237.50 8.65 237.50 8.81C237.50 10.50 237.48 12.18 237.36 12.18L236.64 12.18C236.42 12.18 236.38 12.19 236.38 12.39C236.38 12.63 236.39 12.68 236.59 12.68C236.78 12.68 237.59 12.64 238.18 12.64C239.01 12.64 239.54 12.68 239.86 12.68C240.03 12.68 240.06 12.61 240.06 12.40C240.06 12.24 240.03 12.18 239.86 12.18L238.90 12.18C238.80 12.18 238.77 9.72 238.77 8.22C238.77 8.18 238.77 8.15 238.81 8.09C239.36 7.22 241.30 3.70 241.37 3.70L241.85 3.70C242.02 3.70 242.12 3.68 242.12 3.44C242.12 3.22 242.03 3.19 241.85 3.19C241.63 3.19 241.39 3.23 240.79 3.23C240.20 3.23 239.86 3.19 239.69 3.19C239.50 3.19 239.46 3.25 239.46 3.49C239.46 3.68 239.53 3.70 239.75 3.70L240.48 3.70C240.49 3.70 240.51 3.71 240.51 3.74C240.51 4.05 238.94 6.99 238.56 7.71C238.45 7.92 238.45 7.88 238.34 7.67C237.93 6.89 236.64 4.56 236.35 3.85C236.29 3.71 236.28 3.70 236.46 3.70L237.29 3.70C237.51 3.70 237.54 3.68 237.54 3.49C237.54 3.25 237.50 3.19 237.34 3.19C237.10 3.19 236.49 3.23 235.69 3.23C234.88 3.23 234.39 3.19 234.21 3.19C234.02 3.19 233.95 3.21 233.95 3.44ZM249.66 12.46C249.66 12.63 249.68 12.70 249.86 12.70C250.01 12.70 251.24 12.64 251.64 12.64C252.49 12.64 253.37 12.70 254.23 12.70C256.84 12.70 259.24 11.07 259.24 7.91C259.24 4.89 256.90 3.07 253.86 3.07C253.30 3.07 252.04 3.23 251.01 3.23C250.53 3.23 250.07 3.22 250.01 3.22C249.83 3.22 249.82 3.32 249.82 3.49C249.82 3.68 249.89 3.70 250.01 3.70L250.98 3.67C251.01 3.67 251.01 4.20 251.01 4.72C251.01 5.91 250.92 12.21 250.84 12.21L249.94 12.21C249.76 12.21 249.66 12.22 249.66 12.46ZM252.24 11.40C252.24 9.46 252.24 7.52 252.25 5.60C252.25 5.03 252.29 3.61 252.34 3.60C252.63 3.53 253.22 3.51 253.57 3.51C256.13 3.51 257.74 5.75 257.74 7.73C257.74 8.95 257.70 12.25 253.02 12.25C252.76 12.25 252.35 12.25 252.25 12.21C252.24 12.19 252.24 11.79 252.24 11.40ZM266.64 12.39C266.64 12.63 266.64 12.68 266.84 12.68C267.01 12.68 267.33 12.64 267.90 12.64C268.52 12.64 269.07 12.68 269.22 12.68C269.39 12.68 269.39 12.61 269.39 12.40C269.39 12.24 269.39 12.18 269.22 12.18L268.14 12.18C268.14 12.18 268.13 12.18 268.13 12.17C268.14 11.87 268.91 9.90 269.26 9.02C269.33 8.83 269.35 8.79 269.56 8.79L272.38 8.79C272.52 8.79 272.52 8.81 272.59 9.03C272.86 9.77 273.57 11.89 273.57 12.17C273.57 12.18 273.56 12.18 273.56 12.18L272.79 12.18C272.57 12.18 272.55 12.19 272.55 12.39C272.55 12.63 272.57 12.68 272.73 12.68C273.06 12.68 273.92 12.64 274.34 12.64C274.76 12.64 275.44 12.68 275.65 12.68C275.79 12.68 275.80 12.61 275.80 12.40C275.80 12.24 275.79 12.18 275.65 12.18L275.16 12.18C275.06 12.18 274.04 9.34 273.48 7.78L271.80 3.07C271.78 3.00 271.71 2.94 271.63 2.94C271.50 2.94 271.40 3.16 271.32 3.35C271.17 3.71 270.93 3.84 270.82 4.13L269.33 7.57C269.15 8.01 267.44 12.18 267.32 12.18L266.90 12.18C266.67 12.18 266.64 12.19 266.64 12.39ZM269.54 8.33C269.54 8.30 269.57 8.23 269.61 8.13L270.98 4.77C271.03 4.66 271.05 4.61 271.08 4.61C271.10 4.61 271.11 4.63 271.15 4.77L272.31 8.18C272.34 8.25 272.36 8.29 272.36 8.32C272.36 8.36 272.33 8.37 272.23 8.37L269.72 8.37C269.54 8.37 269.54 8.34 269.54 8.33ZM282.30 3.44C282.30 3.68 282.38 3.70 282.55 3.70L282.95 3.70C283.08 3.70 285.33 7.74 285.74 8.50C285.80 8.60 285.84 8.65 285.84 8.81C285.84 10.50 285.82 12.18 285.70 12.18L284.98 12.18C284.76 12.18 284.72 12.19 284.72 12.39C284.72 12.63 284.73 12.68 284.93 12.68C285.12 12.68 285.94 12.64 286.52 12.64C287.35 12.64 287.88 12.68 288.20 12.68C288.37 12.68 288.40 12.61 288.40 12.40C288.40 12.24 288.37 12.18 288.20 12.18L287.24 12.18C287.14 12.18 287.11 9.72 287.11 8.22C287.11 8.18 287.11 8.15 287.15 8.09C287.70 7.22 289.65 3.70 289.72 3.70L290.19 3.70C290.36 3.70 290.46 3.68 290.46 3.44C290.46 3.22 290.37 3.19 290.19 3.19C289.97 3.19 289.73 3.23 289.13 3.23C288.54 3.23 288.20 3.19 288.04 3.19C287.84 3.19 287.80 3.25 287.80 3.49C287.80 3.68 287.87 3.70 288.09 3.70L288.82 3.70C288.83 3.70 288.85 3.71 288.85 3.74C288.85 4.05 287.28 6.99 286.90 7.71C286.79 7.92 286.79 7.88 286.68 7.67C286.27 6.89 284.98 4.56 284.69 3.85C284.63 3.71 284.62 3.70 284.80 3.70L285.63 3.70C285.85 3.70 285.88 3.68 285.88 3.49C285.88 3.25 285.84 3.19 285.68 3.19C285.45 3.19 284.83 3.23 284.03 3.23C283.22 3.23 282.73 3.19 282.55 3.19C282.37 3.19 282.30 3.21 282.30 3.44Z"></path></g></svg>